<svg width="500" height="500" viewBox="0 0 500 500" fill="none" xmlns="http://www.w3.org/2000/svg">
<path fill-rule="evenodd" clip-rule="evenodd" d="M250 500C388.071 500 500 388.071 500 250C500 111.929 388.071 0 250 0C111.929 0 0 111.929 0 250C0 388.071 111.929 500 250 500ZM176.312 143.25V348H255.906C279.156 347.812 297.062 342.656 309.625 332.531C322.188 322.406 328.469 307.5 328.469 287.812C328.469 276.281 325.422 266.531 319.328 258.562C313.328 250.594 305.078 245.297 294.578 242.672C303.766 239.109 310.938 233.531 316.094 225.938C321.25 218.25 323.828 209.391 323.828 199.359C323.828 180.984 317.406 167.062 304.562 157.594C291.719 148.031 272.875 143.25 248.031 143.25H176.312ZM218.5 314.109V258.844H257.172C276.578 259.125 286.281 268.641 286.281 287.391C286.281 295.734 283.469 302.297 277.844 307.078C272.312 311.766 264.578 314.109 254.641 314.109H218.5ZM249.719 229.031H218.5V177.422H248.031C259.656 177.422 268.141 179.484 273.484 183.609C278.922 187.641 281.641 194.297 281.641 203.578C281.641 220.172 271 228.656 249.719 229.031Z" fill="white"/>
</svg>
