<svg width="1052" height="1052" viewBox="0 0 1052 1052" fill="none" xmlns="http://www.w3.org/2000/svg">
<path d="M968.544 149.125C914.087 90.0611 839.364 57.5312 758.124 57.5312C697.398 57.5312 641.785 76.7297 592.826 114.589C568.121 133.699 545.736 157.079 526 184.368C506.272 157.087 483.879 133.699 459.166 114.589C410.215 76.7297 354.602 57.5312 293.876 57.5312C212.636 57.5312 137.905 90.0611 83.4476 149.125C29.6405 207.499 0 287.247 0 373.688C0 462.658 33.1559 544.099 104.34 629.994C168.019 706.829 259.541 784.826 365.526 875.144C401.715 905.989 442.737 940.951 485.332 978.192C496.584 988.048 511.023 993.474 526 993.474C540.969 993.474 555.416 988.048 566.652 978.208C609.247 940.959 650.293 905.981 686.498 875.12C792.467 784.818 883.989 706.829 947.668 629.986C1018.85 544.099 1052 462.658 1052 373.68C1052 287.247 1022.36 207.499 968.544 149.125Z" fill="#FF0000"/>
</svg>
