<svg width="1052" height="1052" viewBox="0 0 1052 1052" fill="none" xmlns="http://www.w3.org/2000/svg">
<path d="M525.997 728.29C581.639 728.29 629.256 708.48 668.873 668.879C708.483 629.278 728.29 581.636 728.29 525.999V202.313C728.29 146.676 708.498 99.0541 668.873 59.4329C629.256 19.8206 581.639 0 525.997 0C470.361 0 422.738 19.8206 383.119 59.4329C343.497 99.0475 323.69 146.676 323.69 202.313V525.999C323.69 581.634 343.506 629.278 383.119 668.879C422.731 708.48 470.361 728.29 525.997 728.29Z" fill="white"/>
<path d="M878.125 416.628C870.141 408.619 860.637 404.613 849.678 404.613C838.73 404.613 829.248 408.619 821.23 416.628C813.23 424.635 809.226 434.117 809.226 445.071V525.999C809.226 603.975 781.507 670.668 726.082 726.091C670.675 781.516 603.972 809.229 525.994 809.229C448.019 809.229 381.323 781.516 325.896 726.091C270.475 670.684 242.767 603.977 242.767 525.999V445.071C242.767 434.117 238.761 424.635 230.756 416.628C222.747 408.619 213.274 404.613 202.309 404.613C191.343 404.613 181.859 408.619 173.855 416.628C165.843 424.635 161.84 434.117 161.84 445.071V525.999C161.84 619.145 192.929 700.177 255.09 769.08C317.253 837.986 394.066 877.497 485.532 887.605V971.066H323.688C312.729 971.066 303.247 975.076 295.24 983.085C287.231 991.088 283.225 1000.57 283.225 1011.53C283.225 1022.47 287.231 1031.98 295.24 1039.98C303.247 1047.98 312.729 1052 323.688 1052H728.29C739.246 1052 748.742 1047.99 756.738 1039.98C764.756 1031.98 768.764 1022.48 768.764 1011.53C768.764 1000.58 764.756 991.09 756.738 983.085C748.744 975.076 739.249 971.066 728.29 971.066H566.466V887.605C657.916 877.497 734.723 837.986 796.892 769.08C859.062 700.177 890.16 619.145 890.16 525.999V445.071C890.16 434.119 886.146 424.644 878.125 416.628Z" fill="white"/>
</svg>
